<svg xmlns="http://www.w3.org/2000/svg" viewBox="0 0 32 32" width="32" height="32">
  <filter id="f" x="-20%" y="-20%" width="140%" height="140%">
    <feDropShadow dx="1" dy="1" stdDeviation="1" flood-color="#000" flood-opacity="0.3"/>
  </filter>
  <g filter="url(#f)">
    <!-- Petals -->
    <ellipse cx="16" cy="6" rx="4" ry="7" fill="#FFCA28"/>
    <ellipse cx="16" cy="26" rx="4" ry="7" fill="#FFCA28"/>
    <ellipse cx="6" cy="16" rx="7" ry="4" fill="#FFCA28"/>
    <ellipse cx="26" cy="16" rx="7" ry="4" fill="#FFCA28"/>
    <ellipse cx="8.9" cy="8.9" rx="4" ry="7" fill="#FFCA28" transform="rotate(45 8.9 8.9)"/>
    <ellipse cx="23.1" cy="23.1" rx="4" ry="7" fill="#FFCA28" transform="rotate(45 23.1 23.1)"/>
    <ellipse cx="23.1" cy="8.9" rx="4" ry="7" fill="#FFCA28" transform="rotate(-45 23.1 8.9)"/>
    <ellipse cx="8.9" cy="23.1" rx="4" ry="7" fill="#FFCA28" transform="rotate(-45 8.9 23.1)"/>
    
    <!-- Center -->
    <circle cx="16" cy="16" r="6.5" fill="#5D4037"/>
    <circle cx="16" cy="16" r="4.5" fill="#3E2723"/>
    
    <!-- Seed details -->
    <circle cx="14.5" cy="14.5" r="1" fill="#795548"/>
    <circle cx="17.5" cy="14.5" r="1" fill="#795548"/>
    <circle cx="16" cy="17.5" r="1" fill="#795548"/>
  </g>
</svg>
